<svg width="25" height="25" viewBox="0 0 25 25" fill="none" xmlns="http://www.w3.org/2000/svg">
<path d="M16.7453 2.08334H20.2724C21.7331 2.08334 22.9167 3.27694 22.9167 4.74997V8.30681C22.9167 9.77984 21.7331 10.9734 20.2724 10.9734H16.7453C15.2846 10.9734 14.101 9.77984 14.101 8.30681V4.74997C14.101 3.27694 15.2846 2.08334 16.7453 2.08334" fill="black"/>
<path fill-rule="evenodd" clip-rule="evenodd" d="M4.72761 2.08334H8.25466C9.71535 2.08334 10.899 3.27694 10.899 4.74997V8.30681C10.899 9.77984 9.71535 10.9734 8.25466 10.9734H4.72761C3.26691 10.9734 2.08331 9.77984 2.08331 8.30681V4.74997C2.08331 3.27694 3.26691 2.08334 4.72761 2.08334ZM4.72761 14.0266H8.25466C9.71535 14.0266 10.899 15.2202 10.899 16.6932V20.25C10.899 21.7221 9.71535 22.9167 8.25466 22.9167H4.72761C3.26691 22.9167 2.08331 21.7221 2.08331 20.25V16.6932C2.08331 15.2202 3.26691 14.0266 4.72761 14.0266ZM20.2724 14.0266H16.7453C15.2846 14.0266 14.101 15.2202 14.101 16.6932V20.25C14.101 21.7221 15.2846 22.9167 16.7453 22.9167H20.2724C21.733 22.9167 22.9166 21.7221 22.9166 20.25V16.6932C22.9166 15.2202 21.733 14.0266 20.2724 14.0266Z" fill="black"/>
</svg>
