<svg width="22" height="18" viewBox="0 0 22 18" fill="none" xmlns="http://www.w3.org/2000/svg">
<path d="M12.8497 1.25031V3.67031" stroke="#848484" stroke-width="1.5" stroke-linecap="round" stroke-linejoin="round"/>
<path d="M12.8497 14.7601V16.7841" stroke="#848484" stroke-width="1.5" stroke-linecap="round" stroke-linejoin="round"/>
<path d="M12.8497 11.3246V6.5036" stroke="#848484" stroke-width="1.5" stroke-linecap="round" stroke-linejoin="round"/>
<path fill-rule="evenodd" clip-rule="evenodd" d="M17.7021 17C19.5242 17 21 15.5426 21 13.7431V11.1506C19.7943 11.1506 18.8233 10.1917 18.8233 9.00103C18.8233 7.81035 19.7943 6.85039 21 6.85039L20.999 4.25686C20.999 2.45745 19.5221 1 17.7011 1H4.29892C2.47789 1 1.00104 2.45745 1.00104 4.25686L1 6.93485C2.20567 6.93485 3.17668 7.81035 3.17668 9.00103C3.17668 10.1917 2.20567 11.1506 1 11.1506V13.7431C1 15.5426 2.4758 17 4.29787 17H17.7021Z" stroke="#848484" stroke-width="1.5" stroke-linecap="round" stroke-linejoin="round"/>
</svg>
